<svg version="1.1" xmlns="http://www.w3.org/2000/svg" xmlns:xlink="http://www.w3.org/1999/xlink" width="500.000000pt" height="500.000000pt" viewBox="0,0,256,256"><g fill="#5c7cfa" fill-rule="nonzero" stroke="none" stroke-width="1" stroke-linecap="butt" stroke-linejoin="miter" stroke-miterlimit="10" stroke-dasharray="" stroke-dashoffset="0" font-family="none" font-weight="none" font-size="none" text-anchor="none" style="mix-blend-mode: normal"><g transform="translate(-0.18243,0.11212) scale(0.512,0.512)"><g transform="translate(0,500) scale(0.1,-0.1)"><path d="M2065,4976c-166,-35 -493,-146 -563,-192c-72,-47 -65,-188 12,-235c49,-30 102,-24 228,27c142,57 278,98 416,124c117,22 148,38 174,91c37,72 11,149 -62,187c-54,27 -66,27 -205,-2z"></path><path d="M2752,4993c-35,-7 -90,-68 -98,-109c-15,-79 37,-156 114,-170c184,-31 303,-65 477,-134c81,-32 142,-50 169,-50c102,0 164,104 122,205c-19,44 -42,58 -194,117c-163,62 -298,103 -429,128c-104,20 -118,21 -161,13z"></path><path d="M3852,4503c-62,-30 -93,-104 -72,-168c8,-25 40,-60 108,-119c111,-96 257,-242 331,-334c66,-80 93,-97 152,-96c113,1 177,126 113,220c-96,142 -346,392 -488,488c-45,30 -95,34 -144,9z"></path><path d="M520,4442c-74,-37 -102,-131 -60,-199c28,-46 63,-65 131,-72l59,-6l-81,-100c-294,-362 -486,-810 -549,-1278c-18,-137 -13,-494 10,-645c102,-692 487,-1304 1079,-1710c305,-210 682,-355 1066,-408c165,-24 488,-23 650,0c458,66 872,242 1237,526c201,156 464,452 595,670c160,267 276,578 324,872c21,129 21,135 4,171c-47,99 -184,114 -247,27c-10,-15 -28,-80 -42,-160c-71,-384 -232,-733 -468,-1015c-634,-758 -1643,-1024 -2531,-669c-310,124 -550,286 -783,526c-165,171 -282,334 -384,538c-243,485 -302,1009 -171,1516c79,301 232,607 428,852l58,73l6,-51c8,-59 28,-94 72,-120c68,-42 162,-14 200,60c16,31 17,62 15,282c-3,231 -4,248 -24,275c-43,59 -66,63 -324,63c-204,0 -240,-2 -270,-18z"></path><path d="M2360,4259c-215,-16 -413,-71 -616,-169c-372,-180 -654,-462 -834,-834c-136,-281 -192,-570 -170,-880c17,-230 68,-421 170,-632c208,-430 566,-751 1012,-908c442,-156 913,-130 1334,74c361,175 637,445 821,805c175,341 230,759 152,1139c-75,361 -289,728 -564,967c-368,320 -829,475 -1305,438zM2048,3212c140,-44 254,-162 292,-301c15,-57 15,-193 -1,-257c-34,-143 -117,-246 -335,-420c-78,-61 -151,-126 -163,-143l-22,-31h211c239,0 263,-5 302,-67c41,-68 20,-164 -45,-203c-30,-19 -52,-20 -373,-20c-338,0 -341,0 -375,23c-67,44 -82,111 -54,240c33,157 112,260 330,431c159,126 210,181 230,249c20,67 19,93 -6,143c-15,31 -32,48 -63,63c-52,26 -69,26 -123,2c-45,-21 -83,-78 -83,-126c0,-65 -52,-131 -115,-145c-78,-18 -166,39 -181,115c-16,85 30,222 103,313c104,128 305,185 471,134zM2868,3210c18,-11 41,-34 52,-52c18,-31 20,-51 20,-270v-238h145h145v233c0,201 2,237 18,267c53,107 211,107 264,0c17,-32 18,-84 18,-650c0,-580 -1,-617 -19,-650c-56,-107 -210,-107 -263,0c-16,30 -18,66 -18,267v232l-244,3c-269,3 -269,3 -320,72c-20,26 -21,40 -21,364c0,306 2,340 18,370c38,69 136,94 205,52z"></path><path d="M4593,3544c-44,-22 -73,-71 -73,-123c0,-26 16,-82 43,-149c79,-193 115,-309 142,-452c8,-47 23,-96 33,-110c63,-87 200,-72 247,27c17,35 17,43 2,132c-9,53 -29,141 -45,196c-34,117 -133,383 -159,427c-36,61 -123,85 -190,52z"></path></g></g></g></svg>