<svg version="1.1" xmlns="http://www.w3.org/2000/svg" xmlns:xlink="http://www.w3.org/1999/xlink" width="500.000000pt" height="500.000000pt" viewBox="0,0,256,256"><g fill="#339af0" fill-rule="nonzero" stroke="none" stroke-width="1" stroke-linecap="butt" stroke-linejoin="miter" stroke-miterlimit="10" stroke-dasharray="" stroke-dashoffset="0" font-family="none" font-weight="none" font-size="none" text-anchor="none" style="mix-blend-mode: normal"><g transform="translate(0.10344,-0.04757) scale(0.512,0.512)"><g transform="translate(0,500) scale(0.1,-0.1)"><path d="M3026,4658c-13,-18 -16,-51 -16,-156c0,-128 1,-134 25,-157c13,-14 34,-25 45,-25c12,0 32,11 45,25c24,23 25,29 25,157c0,158 -8,178 -70,178c-29,0 -43,-6 -54,-22z"></path><path d="M2643,4554c-19,-19 -24,-32 -20,-52c8,-40 106,-211 127,-222c47,-25 100,6 100,60c0,18 -21,67 -51,120c-71,125 -105,145 -156,94z"></path><path d="M3432,4563c-33,-28 -122,-191 -122,-223c0,-52 60,-85 103,-57c27,17 127,196 127,226c0,27 -42,71 -68,71c-11,0 -29,-8 -40,-17z"></path><path d="M2984,4006c-53,-17 -127,-68 -158,-109c-51,-68 -60,-97 -65,-217l-6,-115l-1240,-5l-1240,-5l-67,-33c-81,-40 -148,-110 -180,-190c-21,-53 -23,-74 -26,-331c-2,-151 -1,-284 2,-297c9,-35 34,-54 70,-54c63,0 64,4 68,320c3,271 4,287 25,326c25,47 73,91 120,111c26,11 206,13 968,13h935l-2,-792l-3,-793h-1020h-1020l-3,284c-3,317 -4,321 -68,321c-36,0 -61,-19 -69,-53c-3,-12 -5,-296 -3,-632l3,-610l23,-57c32,-80 99,-150 180,-190c63,-31 73,-33 206,-38l140,-5l17,-69c53,-211 208,-377 411,-441c145,-46 327,-32 458,35c152,77 277,235 320,404l18,71h667h668l13,-65c43,-210 227,-399 443,-455c81,-21 226,-21 305,0c164,43 321,173 394,325c22,47 45,111 52,142l11,57l197,3l198,3l66,33c81,40 148,110 180,190c23,56 23,61 23,482c0,421 0,426 -23,482c-29,71 -100,152 -161,182c-25,13 -179,67 -341,121c-162,54 -312,106 -332,116c-45,23 -46,25 -216,444c-72,176 -145,355 -163,398c-19,48 -49,97 -76,127c-52,58 -145,108 -219,116l-51,6l-6,102c-3,56 -12,122 -22,148c-23,65 -94,141 -161,174c-66,32 -175,42 -240,20zM3160,3860c21,-11 51,-36 67,-57c26,-33 28,-45 31,-140l4,-103h-181h-181v90c0,125 28,178 110,214c49,21 104,20 150,-4zM3484,3408c23,-7 58,-30 81,-53c35,-35 61,-91 204,-440c190,-463 211,-508 264,-546c24,-18 156,-67 371,-139c358,-120 387,-134 427,-212c14,-27 21,-62 22,-111l2,-72l-574,-3c-430,-2 -578,-5 -589,-14c-38,-32 -30,-97 14,-117c18,-8 189,-11 590,-11h566l-4,-262c-3,-248 -4,-265 -25,-304c-25,-47 -73,-91 -120,-111c-23,-9 -83,-13 -207,-13h-176l-5,28c-33,162 -105,284 -222,376c-194,153 -440,177 -661,66c-95,-48 -158,-102 -217,-185c-46,-64 -92,-169 -104,-240l-7,-40l-392,-3l-392,-2v345v345h535c370,0 542,3 558,11c46,21 54,70 19,112c-14,16 -54,17 -564,17h-548v795v795h556c412,0 567,-3 598,-12zM2188,1348l-3,-343l-205,-3l-206,-2l-13,62c-34,167 -167,337 -323,412c-181,87 -370,87 -548,0c-56,-28 -95,-57 -155,-118c-90,-91 -135,-169 -163,-286l-17,-70h-118c-76,0 -129,5 -150,13c-47,20 -95,64 -120,111c-21,39 -22,56 -25,304l-4,262h1026h1026zM1262,1389c163,-35 310,-173 353,-333c13,-47 16,-89 13,-158c-3,-82 -8,-102 -41,-171c-87,-179 -259,-278 -457,-264c-96,7 -175,37 -253,95c-231,176 -246,511 -32,711c119,111 264,152 417,120zM3835,1385c84,-22 152,-62 215,-125c258,-258 140,-692 -214,-786c-158,-42 -347,13 -457,134c-176,193 -171,467 11,651c120,121 285,167 445,126z"></path><path d="M2542,3253c-62,-30 -62,-33 -62,-443c0,-333 2,-375 17,-401c35,-60 29,-59 625,-59c521,0 544,1 575,20c35,21 63,67 63,102c-1,13 -67,187 -149,388c-133,329 -151,367 -181,388c-33,22 -34,22 -444,22c-359,0 -415,-3 -444,-17zM3476,2820c68,-168 124,-311 124,-318c0,-10 -101,-12 -487,-10l-488,3l-3,318l-2,317l366,-2l366,-3z"></path><path d="M1075,1126c-175,-78 -159,-350 24,-405c224,-67 382,214 206,367c-20,18 -48,38 -62,43c-35,13 -133,10 -168,-5zM1219,974c23,-30 26,-61 8,-85c-48,-63 -137,-33 -137,45c0,63 89,90 129,40z"></path><path d="M3625,1121c-75,-34 -118,-107 -117,-197c1,-149 156,-254 290,-199c173,72 185,311 20,396c-49,25 -139,25 -193,0zM3775,980c25,-27 23,-76 -3,-102c-45,-46 -125,-13 -125,51c0,44 28,71 73,71c24,0 43,-7 55,-20z"></path><path d="M1013,3250c-53,-32 -58,-50 -63,-235l-5,-170l-177,-5c-170,-5 -177,-6 -202,-29c-35,-33 -46,-78 -46,-191c0,-117 20,-168 73,-193c28,-14 66,-17 196,-17h161v-166c0,-149 2,-170 20,-199c30,-49 68,-60 200,-60c95,0 120,3 146,19c58,35 64,56 64,240v166h161c190,0 217,8 249,74c16,34 20,62 20,144c0,110 -11,153 -50,187c-20,18 -40,21 -199,25l-176,5l-5,170c-7,241 -19,255 -222,255c-94,0 -118,-3 -145,-20zM1240,2952c0,-251 1,-252 260,-252h160v-75v-75h-176c-101,0 -183,-4 -195,-10c-41,-23 -49,-59 -49,-240v-170h-75h-75v165c0,180 -9,220 -51,243c-16,8 -83,13 -199,15l-175,2l-3,72l-3,71l179,4c194,3 222,11 242,64c6,14 10,102 10,195v169h75h75z"></path></g></g></g></svg>